# xmcd CD database file
#
# Track frame offsets:
#	150
#	11661
#	26842
#	40061
#	52958
#	66686
#	80742
#	94159
#	109334
#	122797
#	137694
#	152515
#	166887
#	181714
#	196430
#	211318
#	224921
#	237171
#	251112
#	262817
#	276930
#	291023
#
# Disc length: 4098 seconds
#
# Revision: 1
# Processed by: cddbd v1.5.2PL0 Copyright (c) Steve Scherf et al.
# Submitted via: CDex 1.81
#
DISCID=4b100016
DTITLE=Varios - Jazz in the Charts - CD059 (1940) (7)
DYEAR=1940
DGENRE=Jazz
TTITLE0=Down Argentina Way - Bob Crosby and His Orchestra
TTITLE1=Two Dreams Met - Tommy Dorsey and His Orchestra
TTITLE2=Now I Lay Me Down to Dream - Andy Kirk and His Twelve Clouds Of Joy
TTITLE3=Drummer Boy - Gene Krupa and His Orchestra
TTITLE4=Night and Day - Gene Krupa and His Orchestra
TTITLE5=Scrub Me, Mama, with a Boogie Beat - Will Bradley and His Orchestra
TTITLE6=You Forgot About Me - Bob Crosby and His Orchestra
TTITLE7=Romance in the Dark - Lil Green and Others
TTITLE8=Beat Me, Daddy, Eight to the Bar - Glenn Miller and His Orchestra
TTITLE9=A Handful of Stars - Glenn Miller and His Orchestra
TTITLE10=Celery Stalks at Midnight - Will Bradley and His Orchestra
TTITLE11=Five O`Clock Whistle - Ella Fitzgerald and Her Famous Orchestra
TTITLE12=Moon Over Burma - Gene Krupa and His Orchestra
TTITLE13=Yesterthoughts - Glenn Miller and His Orchestra
TTITLE14=An Old, Old Castle in Scotland - Artie Shaw and His Orchestra
TTITLE15=And So Do It - Jimmy Dorsey and His Orchestra
TTITLE16=The Bad Humor Man - Jimmy Dorsey and His Orchestra
TTITLE17=Down Argentina Way - Gene Krupa and His Orchestra
TTITLE18=I`d Know You Anywhere - Glenn Miller and His Orchestra
TTITLE19=There I Go - Will Bradley and His Orchestra
TTITLE20=Down the Road a Piece - Will Bradley and His Orchestra
TTITLE21=A Nightingale Sang in Berkeley Square - Glenn Miller and His Orchestra
EXTD=YEAR: 1940
EXTT0=
EXTT1=
EXTT2=
EXTT3=
EXTT4=
EXTT5=
EXTT6=
EXTT7=
EXTT8=
EXTT9=
EXTT10=
EXTT11=
EXTT12=
EXTT13=
EXTT14=
EXTT15=
EXTT16=
EXTT17=
EXTT18=
EXTT19=
EXTT20=
EXTT21=
PLAYORDER=
